<?xml version="1.0" encoding="UTF-8"?>
<svg id="Layer_1" xmlns="http://www.w3.org/2000/svg" version="1.1" viewBox="0 0 857 457">
  <!-- Generator: Adobe Illustrator 30.0.0, SVG Export Plug-In . SVG Version: 2.1.1 Build 123)  -->
  <defs>
    <style>
      .st0 {
        fill: #228ccc;
      }

      .st1 {
        fill: #373534;
      }
    </style>
  </defs>
  <g>
    <ellipse class="st0" cx="552.01" cy="30.08" rx="1.88" ry="1.61" transform="translate(55.47 273.12) rotate(-29.2)"/>
    <circle class="st0" cx="610.17" cy="46.05" r="1.15"/>
    <circle class="st0" cx="493.02" cy="56.85" r="3.27"/>
    <ellipse class="st0" cx="457.99" cy="57.97" rx="3.57" ry="3" transform="translate(-1.67 15.22) rotate(-1.9)"/>
    <path class="st0" d="M375.78,149.33c-.15.09-.34.03-.42-.12-.04-.07-.05-.14-.04-.22,3.23-15.61,14.78-23.84,30.19-23.97,4.29-.03,8.21.28,11.75.93.32.06.64-.09.8-.37,1.28-2.21,2.11-3.48,2.49-3.81,6.36-5.59,13.72-7.51,22.09-5.75.49.11,2.13.85,4.91,2.23.35.17.77.17,1.12,0l4.11-2.04c.36-.18.51-.6.33-.96,0,0,0,0,0,0-10.53-21.12,6.3-39.88,27.5-40.58,6.03-.19,11.67,1.2,16.9,4.18,3.61,2.05,5.87,5.6,10,7.55.4.18.82.29,1.25.3,9.41.27,17.26,2.43,24.32,8.64.19.17.46.21.68.09,4.28-2.2,8.88-3.24,13.81-3.13.35.01.65-.26.67-.62.82-13.28,10.49-23.97,22.71-27.87,12.87-4.12,27.18.47,35.34,11.47,2.94,3.97,4.17,8.76,4.53,13.34.68,8.83,1.74,16.79,12.05,18.98,4.97,1.06,10.15,1.41,14.63,4.06.4.24.78.53,1.11.87,3.17,3.19,6.44,5.86,9.83,8.01,3.02,1.92,5.17,3.65,6.45,5.19,8.56,10.32,10.09,23.34,9.09,36.27-.02.29-.28.52-.57.5-11-.57-17.26-.93-18.79-1.08-9.87-.92-19.83-2.91-29.86-5.96-29.67-9.03-50.81-15.46-63.43-19.29-52.89-16.05-111.72-15.08-162.52,6.89-5.23,2.26-9.58,4.35-13.03,6.27ZM454.43,95.51c.07.05.17.03.22-.04,6.53-9.14,16.09-13.52,27.14-14.71,1.16-.13,4.7-.11,10.62.05.18,0,.32-.13.33-.31,0,0,0,0,0-.01v-.02c0-.2-.16-.37-.36-.38,0,0,0,0,0,0-4.04,0-7.28-1.08-11.34-.6-3.81.45-6.2.8-7.17,1.06-8.5,2.32-15,7.22-19.51,14.7-.05.09-.02.21.06.26h.01ZM585.77,92.27c-.11-.03-.19-.11-.22-.22l-2.14-6.85c-.05-.17-.24-.27-.41-.22-.1.03-.18.11-.22.22l-2.09,6.87c-.03.11-.11.19-.22.22l-6.85,2.14c-.17.05-.27.24-.22.41.03.1.11.18.22.22l6.87,2.09c.11.03.19.11.22.22l2.14,6.85c.05.17.24.27.41.22.1-.03.18-.11.22-.22l2.09-6.87c.03-.11.11-.19.22-.22l6.85-2.14c.17-.05.27-.24.22-.41-.03-.1-.11-.18-.22-.22l-6.87-2.09ZM474.95,100.92c-.52.3-.67,1.04-.32,1.66,0,0,0,0,0,0,.35.62,1.06.88,1.58.59h0c.52-.3.67-1.04.32-1.66h0c-.35-.62-1.06-.88-1.58-.59h0ZM511.71,104.99c-.09-.03-.17-.1-.2-.19l-.97-2.76c-.06-.16-.23-.25-.39-.19-.09.03-.17.11-.2.2l-.9,2.78c-.03.09-.1.17-.19.2l-2.76.97c-.16.06-.25.23-.19.39.03.09.11.17.2.2l2.78.9c.09.03.17.1.2.19l.97,2.76c.06.16.23.25.39.19.09-.03.17-.11.2-.2l.9-2.78c.03-.09.1-.17.19-.2l2.76-.97c.16-.06.25-.23.19-.39-.03-.09-.11-.17-.2-.2l-2.78-.9ZM581.78,111.93c0-1.36-1.1-2.46-2.46-2.46h0c-1.36,0-2.46,1.1-2.46,2.46h0c0,1.36,1.1,2.46,2.46,2.46h0c1.36,0,2.46-1.1,2.46-2.46h0ZM479.12,117.87c-.1-.03-.18-.11-.21-.21l-.86-3.13c-.04-.16-.21-.26-.37-.21-.1.03-.19.11-.21.21l-.83,3.14c-.03.1-.11.18-.21.21l-3.13.86c-.16.04-.26.21-.21.37.03.1.11.19.21.21l3.14.83c.1.03.18.11.21.21l.86,3.13c.04.16.21.26.37.21.1-.03.19-.11.21-.21l.83-3.14c.03-.1.11-.18.21-.21l3.13-.86c.16-.04.26-.21.21-.37-.03-.1-.11-.19-.21-.21l-3.14-.83ZM536.26,116.97c-.07-1.3-1.29-2.29-2.72-2.21-1.43.08-2.54,1.19-2.47,2.48h0c.07,1.3,1.29,2.29,2.72,2.21,1.43-.08,2.54-1.19,2.47-2.48ZM421.66,124.66c3.75-3.41,8.43-5.43,14.02-6.04,2.11-.23,4.83-.26,8.14-.07.16.02.29-.1.3-.26,0-.14-.08-.26-.21-.3-7.06-1.97-13.7-.34-19.62,3.72-1.45.99-2.39,1.93-2.82,2.81-.03.06,0,.13.06.16.04.02.1.01.13-.02ZM448.11,123.04c.76.3,1.29.4,1.59.29.38-.12.59-.53.47-.9-.08-.26-.31-.45-.58-.49-.17-.03-.67.16-1.5.56-.15.07-.21.24-.14.39.03.07.09.12.16.15ZM426.05,128.25c-.12-.29-.57-.38-1.01-.19h0c-.43.18-.68.57-.56.86.12.29.57.38,1.01.19.43-.18.68-.57.56-.86ZM392.09,132.85c-4.06,2.04-7.96,5.21-11.69,9.52-.11.13-.16.24-.15.35.02.1.12.17.22.15.03,0,.06-.02.09-.04,4.05-3.69,8.13-6.56,12.22-8.61,4.09-2.05,8.83-3.6,14.2-4.64.1-.02.17-.12.15-.22,0-.04-.02-.07-.05-.1-.07-.07-.2-.1-.37-.09-5.68.42-10.55,1.65-14.62,3.68ZM578.29,132.18c-.02-.6-.66-1.05-1.41-1.02-.76.03-1.35.54-1.32,1.14h0c.02.6.66,1.05,1.41,1.02.76-.03,1.35-.54,1.32-1.14h0ZM409.78,131.83c-.21.65-.3.99-.27,1.04.21.43.74.55,1.17.27.27-.18.46-.48.49-.81.04-.37-.12-.65-.48-.84-.31-.17-.69-.07-.86.22-.02.04-.04.08-.05.12Z"/>
    <circle class="st0" cx="501.51" cy="71.53" r="2.37"/>
    <ellipse class="st0" cx="533.68" cy="78.61" rx="9.52" ry="10.53" transform="translate(452.28 611.86) rotate(-89.7)"/>
    <ellipse class="st0" cx="513.8" cy="78.62" rx="3.41" ry="3.87" transform="translate(427.12 591.11) rotate(-89.1)"/>
    <circle class="st0" cx="432.93" cy="78.53" r="2.49"/>
    <ellipse class="st0" cx="617.8" cy="79.93" rx="3.24" ry="2.88" transform="translate(-2.99 28.11) rotate(-2.6)"/>
    <ellipse class="st0" cx="626.6" cy="94.67" rx="8.43" ry="7.72" transform="translate(-.8 5.47) rotate(-.5)"/>
    <ellipse class="st0" cx="424.52" cy="101.11" rx="8.31" ry="9.28" transform="translate(319.71 524.72) rotate(-89.5)"/>
    <circle class="st0" cx="393.44" cy="101.83" r="1.87"/>
    <ellipse class="st0" cx="644.94" cy="106.03" rx="5.04" ry="5.59" transform="translate(531.04 749.62) rotate(-89.3)"/>
    <ellipse class="st0" cx="397.02" cy="111.03" rx="5.62" ry="5.04" transform="translate(-6.78 27.96) rotate(-4)"/>
    <ellipse class="st0" cx="443.35" cy="108.39" rx="2.45" ry="2.72" transform="translate(331.87 550.97) rotate(-89.6)"/>
    <ellipse class="st0" cx="411.39" cy="114.06" rx="5.07" ry="5.64" transform="translate(295.18 524.84) rotate(-89.7)"/>
    <path class="st0" d="M230.69,118.74l8.27,2.44c.18.04.29.22.25.4-.03.12-.12.21-.24.24l-8.26,2.5c-.11.03-.19.11-.22.22l-2.44,8.27c-.04.18-.22.29-.4.25-.12-.03-.21-.12-.24-.24l-2.5-8.26c-.03-.11-.11-.19-.22-.22l-8.27-2.44c-.18-.04-.29-.22-.25-.4.03-.12.12-.21.24-.24l8.26-2.5c.11-.03.19-.11.22-.22l2.44-8.27c.04-.18.22-.29.4-.25.12.03.21.12.24.24l2.5,8.26c.03.11.11.19.22.22Z"/>
    <path class="st0" d="M258.86,114.97c.21,0,.36.04.45.15.11.14.18.25.19.32.65,4.07,2.62,4.27,6.11,4.83.2.03.33.22.3.41-.03.15-.14.27-.3.3-3.41.56-5.66.39-6.08,4.67-.03.32-.24.48-.61.48-.37,0-.57-.15-.6-.48-.43-4.28-2.68-4.1-6.09-4.65-.2-.03-.33-.22-.3-.41.03-.15.14-.27.3-.3,3.49-.58,5.45-.78,6.09-4.84.01-.07.08-.18.2-.33.09-.1.2-.15.34-.15Z"/>
    <ellipse class="st0" cx="379.99" cy="119.62" rx="2.67" ry="2.3" transform="translate(-.42 1.33) rotate(-.2)"/>
    <path class="st0" d="M377.43,127.52l5.1,1.32c.17.05.27.23.21.4-.03.1-.11.18-.2.21l-5.05,1.51c-.11.04-.18.12-.21.23l-1.32,5.1c-.05.17-.23.27-.4.21-.1-.03-.18-.11-.21-.2l-1.51-5.05c-.04-.11-.12-.18-.23-.21l-5.1-1.32c-.17-.05-.27-.23-.21-.4.03-.1.11-.18.2-.21l5.05-1.51c.11-.04.18-.12.21-.23l1.32-5.1c.05-.17.23-.27.4-.21.1.03.18.11.21.2l1.51,5.05c.04.11.12.18.23.21Z"/>
    <path class="st0" d="M357.82,130.69c-.43,8.36,5.04,11.62,12.72,11.72.55,0,1,.46,1,1.02v.36c0,.38-.31.68-.68.68-.04,0-.07,0-.11,0-.78-.13-2.23-.02-4.36.34-6.7,1.14-7.57,5.15-8.52,10.85-.08.51-.52.88-1.04.88h-.84c-.5,0-.9-.4-.9-.89,0-.01,0-.03,0-.04.31-7.99-4.88-10.83-12.13-10.82-.58,0-1.05-.47-1.05-1.05h0v-.48c0-.49.39-.88.87-.88.02,0,.04,0,.06,0,2.2.15,3.93.03,5.18-.36,5.93-1.84,6.62-5.95,7.52-11.25.07-.46.47-.79.93-.79h.67c.38,0,.68.3.68.68,0,.01,0,.03,0,.04Z"/>
    <path class="st0" d="M273.09,131.29c.37,0,.57.15.6.47.49,4.27,2.73,4.06,6.14,4.56.2.03.33.21.3.41-.02.15-.14.27-.29.3-3.47.62-5.43.85-6.01,4.91-.01.07-.08.18-.19.33-.09.1-.2.15-.34.16-.21,0-.36-.05-.45-.15-.12-.14-.19-.25-.2-.32-.7-4.04-2.67-4.21-6.15-4.73-.2-.03-.33-.21-.3-.41.02-.15.14-.27.29-.3,3.39-.6,5.63-.46,6-4.74.03-.32.23-.48.6-.49Z"/>
    <path class="st0" d="M214.78,143.67l8.17,2.36c.18.06.28.25.23.42-.03.11-.12.19-.23.23l-8.11,2.56c-.11.04-.19.12-.22.23l-2.36,8.17c-.06.18-.25.28-.42.23-.11-.03-.19-.12-.23-.23l-2.56-8.11c-.04-.11-.12-.19-.23-.22l-8.17-2.36c-.18-.06-.28-.25-.23-.42.03-.11.12-.19.23-.23l8.11-2.56c.11-.04.19-.12.22-.23l2.36-8.17c.06-.18.25-.28.42-.23.11.03.19.12.23.23l2.56,8.11c.04.11.12.19.23.22Z"/>
    <path class="st0" d="M259.03,145.61c.13,0,.24.05.33.15.11.15.18.25.2.32.63,4.04,2.58,4.24,6.04,4.81.2.03.33.22.3.41-.03.15-.14.27-.3.3-3.38.54-5.62.36-6.05,4.61-.03.32-.22.48-.59.48s-.58-.16-.61-.48c-.41-4.25-2.64-4.08-6.03-4.63-.2-.03-.33-.22-.3-.41.03-.15.14-.27.3-.3,3.46-.56,5.42-.76,6.06-4.79.01-.07.08-.18.2-.32.09-.1.24-.15.45-.15Z"/>
    <path class="st0" d="M287.22,162.41c-.21,0-.37-.04-.46-.14-.12-.14-.19-.25-.2-.32-.73-4.06-2.71-4.22-6.22-4.72-.2-.03-.33-.21-.3-.41.02-.15.14-.27.29-.3,3.41-.63,5.66-.5,6-4.8.03-.33.23-.49.6-.5.37,0,.57.15.61.47.52,4.29,2.77,4.06,6.2,4.55.2.03.33.21.3.41-.02.15-.14.27-.29.3-3.48.64-5.45.89-6.01,4.97-.01.07-.08.18-.19.33-.09.11-.2.16-.33.16Z"/>
    <path class="st0" d="M251.88,162.34c.21,0,.36.05.45.15.12.14.19.25.2.32.69,4.03,2.65,4.2,6.12,4.72.2.03.33.21.3.41-.02.15-.14.27-.29.3-3.38.59-5.62.44-5.98,4.71-.03.31-.24.47-.61.48-.36,0-.56-.15-.6-.47-.48-4.25-2.71-4.04-6.1-4.55-.2-.03-.33-.21-.3-.41.02-.15.14-.27.29-.3,3.46-.61,5.41-.83,5.99-4.88.01-.07.08-.18.2-.32.09-.11.2-.16.33-.16Z"/>
    <path class="st0" d="M230.61,173l8.3,2.38c.18.06.28.25.23.42-.03.11-.12.19-.23.23l-8.26,2.49c-.11.03-.2.12-.23.23l-2.38,8.3c-.06.18-.25.28-.42.23-.11-.03-.19-.12-.23-.23l-2.49-8.26c-.03-.11-.12-.2-.23-.23l-8.3-2.38c-.18-.06-.28-.25-.23-.42.03-.11.12-.19.23-.23l8.26-2.49c.11-.03.2-.12.23-.23l2.38-8.3c.06-.18.25-.28.42-.23.11.03.19.12.23.23l2.49,8.26c.03.11.12.2.23.23Z"/>
  </g>
  <g>
    <path class="st1" d="M174.36,197.04c.24.38.74.49,1.13.25,2.23-1.41,3.58-3.32,4.06-5.74,1.08-5.48.63-13.95,1.25-20.6.44-4.59,0-8.5.59-13.83.29-2.74.38-6.31.27-10.72-.05-1.97.36-4.47.57-6.23.54-4.37.01-9.41.49-13.26.53-4.3.65-10.08.45-13.3-.12-1.97-.85-3.81-2.19-5.54-.07-.08-.16-.14-.27-.14-.2-.01-.36.14-.37.33l-6.1,88.29c-.01.17.03.34.12.49Z"/>
    <path class="st1" d="M150.41,162.75c-.26-.3-.65-.45-1.04-.41-5.71.54-10.89,1.11-15.53,1.7-26.81,3.42-52.57,13.86-71.9,33.05-2.48,2.47-5.94,6.92-10.37,13.37-.08.12-.05.28.06.36h.01c.1.09.25.08.33-.02,9.52-10.89,20.63-19.23,33.33-25.03,18.6-8.49,38.72-12.43,60.36-11.84,3.16.09,5.98.11,8.47.08,0,0,.01,0,.02,0,.36-.02.65-.33.63-.69l-.25-5.68c0-.17-.07-.33-.18-.45l-3.94-4.44Z"/>
    <path class="st1" d="M844.58,211c-8.69-5.31-18.18-9.03-28.45-11.17-11.67-2.43-23.74-3.58-36.21-3.43-3.59.04-6.11.48-9.1.61-2.37.1-4.65.25-6.84.45-19.73,1.79-32.51,2.7-38.34,2.71-12.27.03-24.53.03-36.78.02l-40.81-2.49c-.14-.01-.26-.09-.33-.2-.12-.2-.05-.46.15-.58.04-.03.14-.08.29-.16.03-.01.06-.02.09-.03l65.74-6.76c.14-.02.27-.12.31-.25.06-.19-.05-.4-.24-.47-31.86-9.43-63.65-18.3-95.37-26.63-27.17-7.27-61.43-15.78-102.78-25.55-18.13-4.28-35.92-5.46-53.36-3.53-27.42,2.63-54.8,10.9-80.21,21.79-35.97,15.41-69.92,34.87-101.83,58.36-.36.26-.81.39-1.26.36l-9.66-.65c-31.26-.55-52.04-.56-77.63,1.8-12.41,1.15-24.84,2.96-37.28,5.43-35.35,7.04-81.08,24.45-88.9,64.85-.23,1.17-.54,3.31-.94,6.42-.33,2.55-.43,4.7-.31,6.44.4,5.92,1.32,11.52,2.76,16.79.03.11.14.19.25.18.14,0,.24-.12.24-.26-.25-4.5-.22-8.64.09-12.41,4.59-56.37,83.47-64.21,125.27-65.33,23.78-.64,47.86.11,72.25,2.26,47.32,4.17,94.39,11.39,141.21,21.66.1.04.21-.02.24-.11s-.02-.21-.11-.24c-11.89-5.99-24.54-10.28-37.92-14.15-30.04-8.69-61.39-15.86-94.05-21.51-1.13-.2-2.02-.53-2.65-.99,9.83-.19,19.95-.8,29.38-.61,13.17.26,27.21.81,42.12,1.64,17.25.96,33.93,2.14,50.03,3.53,65.35,5.67,133.49,13.04,204.44,22.13,6.49.83,11,1.49,13.53,1.97.25.05.49-.12.54-.37v-.02c.05-.24-.1-.48-.34-.53-68.29-15.37-137.77-25.19-207.7-32.37-2.54-.26-4.94-.17-7.36-.77-.08,0-.14-.08-.13-.17,0-.08.08-.14.16-.14l54.63-3.02c1.77.24,3.19.29,4.24.16,5.61-.75,12.33-.78,17.1-1.05,13.67-.77,28.39-1.51,44.16-2.22,2.7-.12,5.27-.58,7.65-.53,4.86.08,9.53-.2,14.02-.85.1-.02.21.02.27.11.08.12.05.28-.07.36l-17.22,12.81c-.06.04-.1.12-.09.19,0,.12.11.21.23.21,4.31-.2,9.55-.1,15.7.3,24.4,1.6,50.43,6.11,75.31,10.61,27.98,5.13,55.97,10.77,83.97,16.9l6.71,1.48c.31.07.64.01.92-.16,5.91-3.77,12.05-6.79,18.43-9.07,21-7.49,39.02-3.68,54.06,11.43,12.28,12.34,20.52,30,24.74,46.39.05.19.22.33.41.36.27.03.51-.15.54-.42,2.28-18.31-.75-35.48-9.09-51.53-.21-.41-.1-.93.28-1.21l50.94-37.91c.05-.04.1-.09.13-.15.15-.24.07-.57-.17-.71ZM277.65,215.78s-.01-.05-.02-.07c0,.02.02.04.02.07ZM277.6,215.66s-.03-.03-.04-.05c.01.02.03.03.04.05ZM277.52,215.56s-.04-.02-.05-.03c.02,0,.04.02.05.03ZM277.38,215.49s.01,0,.02,0c-.04-.01-.08-.02-.12-.01.03,0,.07,0,.1,0ZM591,177.76c-9.43,2.78-18.43,6.01-27,9.68-5.35,2.29-9.14,4.58-11.39,6.87-.27.27-.63.43-1.01.44l-111.43,3.91c-7.73.9-16.12.55-22.83,1.03-5.98.43-10.78.61-14.41.54-.81-.02-9.9.34-27.27,1.09-5.56.23-9.41.37-11.54.4-8.86.13-14.05.95-21.87.76-3.79-.09-7.22.07-10.29.5-.11.01-.21-.02-.28-.1-.13-.13-.13-.35,0-.48,7.19-6.78,15.29-13.02,24.28-18.73,25.66-16.29,53.49-26.61,83.49-30.98,10.61-1.55,21.92-2.42,33.91-2.61,8.18.31,14.85.68,20.01,1.11,33.39,2.77,66.82,12.42,97.66,26.18.05.03.09.07.11.13.03.11-.03.23-.14.26ZM693.94,225.74s-.02.04-.04.05c-.01,0-.02-.01-.03-.01.03,0,.06,0,.07-.04ZM692.93,221.22s-.06-.07-.11-.09c.05.01.09.04.11.09ZM692.77,221.13s-.03,0-.05.01c0,0,0-.01.01-.01.01,0,.02,0,.04,0Z"/>
    <path class="st1" d="M304.38,261.47c0-.23-.2-.42-.44-.41h-19.29c-.32,0-.6.23-.66.55l-12.57,72.19s0,.05,0,.08c0,.24.19.43.44.43h19.32c.29,0,.54-.21.59-.5l4.94-28.4c.06-.31.33-.54.64-.54l19.44-.07,3.84.18s.05,0,.08,0c.25.05.42.3.37.55l-4.92,28.28s0,.04,0,.07c0,.23.18.41.41.41h19.26c.3,0,.56-.22.61-.52l12.54-72.04s0-.07,0-.1c0-.31-.25-.56-.56-.56h-18.95c-.35,0-.64.25-.7.59l-4.57,26.27c-.06.32-.33.55-.65.56l-4.17.11-19.2-.08s-.04,0-.07,0c-.23-.04-.38-.26-.34-.48l4.61-26.48s0-.06,0-.09Z"/>
    <path class="st1" d="M256.18,318.89h-21.25s-.07,0-.11,0c-.3-.06-.51-.35-.45-.65l9.85-56.48s0-.07,0-.11c0-.31-.26-.56-.57-.55h-19.19c-.27,0-.5.19-.55.46l-12.56,72.08s0,.07,0,.11c0,.31.26.56.57.55h41.78c.27,0,.5-.19.55-.46l2.49-14.28s0-.07,0-.11c0-.31-.26-.56-.57-.55Z"/>
    <path class="st1" d="M508.38,268.36c-8.75-7.06-20.34-7.85-31.2-7.19l-20.16-.1c-.31,0-.58.22-.63.53l-12.63,72.5s0,.01,0,.02c0,.04.04.08.09.08l32.56-.07c18.61-1.47,33.64-13.02,39.03-30.92,3.49-11.62,3.31-26.48-7.06-34.85ZM496.67,296.47c-1.93,11.3-8.51,17.77-19.74,19.42l-8.97-.15s-.06,0-.09,0c-.33-.06-.56-.36-.5-.69l6.17-35.39c.08-.43.44-.75.87-.75l3.68-.08c4.09-.05,7.76.54,11.02,1.78,1.73.66,3.27,1.87,4.6,3.63,2.75,3.63,3.73,7.71,2.96,12.24Z"/>
    <path class="st1" d="M565.84,261.09l-23.59-.09c-.28,0-.53.2-.57.48l-12.57,72.18s0,.07,0,.1c0,.31.25.56.56.56h27.79c7.14-.06,13.35-1.22,18.64-3.51,15.17-6.57,25.76-21.01,26.5-38.21.19-4.25.1-7.16-.25-8.74-4.17-18.6-19.51-23.42-36.5-22.77ZM566.87,314.93c-2.8.95-6.15.9-9.18.92l-4.71-.11s-.04,0-.07,0c-.21-.04-.35-.24-.31-.45l6.24-35.85c.05-.3.31-.52.62-.52l6.89-.06c8.86.91,15.86,4.27,15.52,14.49-.37,11.13-5.37,18.32-15,21.59Z"/>
    <path class="st1" d="M762.34,261.14l-19.73.02-28.4-.04c-.29,0-.54.21-.59.49l-12.6,72.4s0,.04,0,.06c0,.14.12.25.26.24h19.56c.28,0,.53-.2.58-.48l4.7-27.02c.11-.57.6-.99,1.18-.99h20.12c.31,0,.58-.22.64-.53l2.49-14.33s0-.05,0-.08c0-.28-.22-.5-.5-.5h-20.49s-.05,0-.08,0c-.26-.04-.44-.29-.39-.55l2.07-11.88c.06-.34.35-.58.69-.58l10.59-.07,17.27-.09c.33,0,.61-.24.66-.56l2.58-14.78s0-.07,0-.11c0-.34-.28-.62-.62-.61Z"/>
    <path class="st1" d="M404.43,322.02c.31,0,.58.23.62.53l1.74,11.26c.04.28.28.49.56.49h20.14s.08,0,.12-.01c.34-.07.56-.4.5-.74l-13.51-71.22c-.06-.31-.33-.54-.65-.54l-19.1-.09h-3.26c-.3,0-.58.17-.72.43l-38.86,71.75s-.04.1-.04.15c0,.16.14.29.3.28h20.5c.33,0,.63-.19.77-.48l5.59-11.39c.13-.28.41-.45.72-.45l16.61-.05,7.97.08ZM387.72,306.5c-.05,0-.1-.01-.15-.04-.16-.08-.23-.28-.14-.43l10.54-20.69c.11-.65.22-.99.32-1.02.03,0,.06-.01.09-.02.42-.06.81.22.87.64l3.26,21s0,.03,0,.05c0,.24-.18.45-.41.45l-6.49.22-7.89-.16Z"/>
    <path class="st1" d="M140.65,334.33c.12,0,.23-.06.28-.17l5.87-12.01c.05-.11.16-.17.28-.17h25.27c.16,0,.29.11.31.27l1.52,11.76c.02.16.15.27.31.27h20.92s.04,0,.06,0c.17-.03.28-.2.24-.36l-13.66-71.99c-.03-.15-.16-.25-.31-.25h-22.91c-.11,0-.22.06-.27.16l-39.01,72.04s-.04.1-.04.15c0,.17.14.31.31.31h20.83ZM155.14,306.11l10.9-22.25c.05-.1.15-.18.26-.19.18-.02.33.11.35.29l3.42,22.24s0,.03,0,.04c0,.18-.14.32-.31.33h-14.34s-.09-.01-.13-.03c-.16-.08-.22-.27-.15-.43Z"/>
    <path class="st1" d="M671.19,261.64h-22.29c-.34,0-.66.19-.81.49l-1.37,2.69-37.3,68.84c-.04.07-.05.14-.05.21,0,.24.2.44.44.44h20c.46,0,.89-.27,1.1-.69l5.48-11.17c.15-.3.45-.49.79-.49l17.77.04,6.83.08c.26,0,.49.19.54.46l1.72,11.22c.05.31.31.53.62.53h20.32s.05,0,.08,0c.24-.04.4-.27.35-.51l-13.59-71.61c-.06-.3-.32-.52-.63-.52ZM659.21,306.56c-.32.11-.76.15-1.33.1l-12.58-.07c-.09,0-.17-.02-.25-.06-.29-.14-.4-.49-.26-.78l4.95-9.68,6.13-12.21c.03-.08.11-.14.2-.15.13-.01.25.08.26.22l3.36,21.82c.05.35-.15.69-.48.81Z"/>
    <path class="st1" d="M277.85,349.64c-3.79-.05-6.24.14-7.34.57-6.28,2.46-10.12,7.02-11.53,13.67-.6,2.84-2.31,10.88-1.59,14.65.96,5.07,3.9,8.49,8.83,10.25.38.13.78.2,1.18.21,4.55.12,7.35.04,8.41-.24,6.45-1.7,10.18-5.88,11.19-12.53,0-.01,0-.02,0-.03,0-.11-.1-.2-.21-.2h-6.96c-.16,0-.3.11-.33.27-1.11,5.12-4.25,7.35-9.42,6.69-3.63-.46-4.53-3.52-4.92-6.89-.03-.29-.03-.57.01-.86.29-2.35.81-5.88,1.54-10.59.71-4.56,4.18-9.26,9.22-9.1,4.32.14,6.28,2.49,5.89,7.06,0,0,0,.01,0,.02,0,.11.09.2.2.2h6.89c.19,0,.36-.14.39-.33,1.29-7.58-4.05-12.74-11.45-12.82Z"/>
    <path class="st1" d="M433.55,350.13c0-.1-.09-.19-.19-.19h-7.45c-.17,0-.31.1-.37.26-4.74,13.66-7.57,21.83-8.5,24.52-.13.37-.37.59-.7.64-.04,0-.07,0-.11,0-.24-.02-.41-.23-.39-.46.13-1.75.1-3.26-.07-4.53-.06-.49-.81-7.14-2.24-19.95-.04-.35-.34-.62-.7-.62h-5.1c-.37,0-.71.23-.85.57l-10.33,24.83c-.03.09-.11.14-.2.14-.11,0-.2-.1-.19-.21l-1.12-25.06c0-.17-.14-.3-.31-.3h-7.84s-.01,0-.02,0c-.08.01-.14.08-.13.16l3.23,38.25c.03.37.35.66.72.64l5.97-.27c.62-.02,1.16-.4,1.39-.97l9.62-23.11c.06-.16.2-.27.37-.28.24-.02.46.15.48.39l3.06,23.57c.05.36.37.63.73.61l6.07-.27c.37-.02.7-.25.83-.6l14.33-37.69s.01-.05.01-.07Z"/>
    <path class="st1" d="M491.95,349.74c-8.62-1.04-18.93,1.75-18.38,12.38.38,7.41,10.6,9.47,15.78,11.76,4,1.75,5.35,5.92,1.1,8.36-1.25.72-3.1.97-5.54.74-3.71-.35-5.56-1.98-5.56-4.9,0-.43-.35-.77-.77-.77h-6.34c-.42,0-.77.32-.82.74-.74,6.87,5.43,10.56,11.48,10.94,9.49.6,19.34-1.97,17.68-14.1-.04-.32-.13-.63-.26-.93-2.78-6.19-11.27-7.74-15.3-9.6-2.93-1.35-3.94-3.31-3.01-5.88.12-.32.3-.62.54-.87,1.95-2.06,4.51-2.58,7.68-1.57,2.47.79,3.66,2.38,3.59,4.77,0,0,0,.01,0,.02,0,.32.26.58.59.58h6.42c.29,0,.54-.21.58-.49.96-6.39-3.53-10.47-9.46-11.18Z"/>
    <path class="st1" d="M316.6,349.84h-7.08c-.2,0-.38.11-.46.29l-18.55,37.84c-.03.07-.05.14-.05.22,0,.28.23.51.51.51h7.12c.2,0,.38-.11.46-.29l3.76-7.66c.08-.18.26-.29.46-.29h11.5c.24,0,.45.17.5.41l1.39,7.33c.05.24.26.41.5.41h7.1s.07,0,.11,0c.28-.06.46-.32.4-.6l-7.17-37.75c-.05-.24-.26-.41-.5-.41ZM312.81,374.33h-7.2c-.06,0-.12-.01-.17-.04-.19-.09-.27-.33-.18-.52l6.21-12.65s.05-.06.09-.06c.07-.01.14.03.15.1l1.89,12.25s0,.08,0,.12c0,.44-.36.8-.8.8Z"/>
    <path class="st1" d="M356.08,369.42c5.93-2.51,6.78-7.97,5.56-13.73-.09-.45-.29-.87-.58-1.23-2.25-2.79-5.6-4.27-10.05-4.44-5.65-.22-9.63-.27-11.93-.16-.81-.17-1.56-.12-2.25.15-.28.11-.49.37-.53.67l-5.74,37.66s0,.03,0,.05c0,.18.14.33.31.32h7.25c.27,0,.5-.2.53-.46l1.32-9.88.79-4.41c.06-.37.39-.65.77-.64,2.28.03,4.34.1,6.17.19,5.87.3,4.24,5.68,3.64,9.56-.28,1.75-.21,3.33.22,4.74.14.47.57.79,1.06.79h7.19c.13,0,.25-.04.34-.12.22-.19.25-.52.07-.75-1.4-1.7-1.43-3.43-.97-5.76.9-4.49,1.32-9.17-3.21-11.4-.13-.07-.24-.18-.3-.31-.14-.32.01-.7.34-.84ZM354.33,361.15c-.55,6.09-6.69,6.33-11.43,6.12-.03,0-.07,0-.1-.01-.58-.09-.98-.63-.89-1.2l1.33-8.75c.12-.77.77-1.35,1.55-1.37,3.83-.1,10.05-.46,9.54,5.21Z"/>
    <path class="st1" d="M456.64,349.91l-6.5-.08c-.49,0-.93.27-1.14.7l-18.36,37.35c-.05.09-.07.19-.07.3,0,.35.3.62.65.61l6.45-.15c.66-.01,1.24-.4,1.51-1l2.84-6.45c.19-.44.63-.73,1.11-.73h11.34c.28,0,.51.21.55.49l1.09,7.4c.03.18.18.31.36.3l7.58-.05s.04,0,.06,0c.13-.03.21-.16.18-.28l-6.96-37.81c-.06-.34-.35-.59-.69-.59ZM453.35,374.3h-7.62c-.06,0-.13-.01-.18-.04-.2-.1-.28-.34-.18-.54l5.81-11.83c.06-.11.17-.19.29-.21.22-.04.42.11.46.33l1.82,11.83s0,.04,0,.06c0,.22-.18.4-.4.4Z"/>
    <path class="st1" d="M543.53,349.94h-7.15c-.15,0-.28.11-.3.26l-2.41,15.82c-.06.37-.39.65-.77.65h-14.2c-.22,0-.42-.11-.53-.3-.13-.21-.18-.47-.18-.76l.08-.54,2.1-14.88s0-.03,0-.04c0-.16-.13-.29-.29-.29h-7.05c-.15,0-.29.11-.31.26l-5.77,37.9s0,.06,0,.09c0,.33.27.6.6.6h6.48c.45,0,.84-.33.9-.77l2.25-15.01,14.56-.36c.05,0,.11,0,.16,0,.46.07.78.51.71.97l-2.23,14.6s0,.04,0,.07c0,.25.2.45.44.44h6.72c.33,0,.62-.24.67-.57l5.77-37.88s0-.02,0-.03c0-.13-.11-.24-.24-.24Z"/>
    <path class="st1" d="M251.29,358.18h-44.51c-.54,0-1.07.21-1.45.59-8.03,7.79-16.83,14.62-26.42,20.49-16.31,9.87-33.96,14.93-52.97,15.17-2.81.03-5.35-.65-8.08-.77-1.97-.09-3.99-.31-6.05-.67-19.11-3.34-36.3-11.12-51.56-23.34-.1-.07-.22-.07-.32,0-.13.09-.16.26-.07.39,7.77,9.74,16.74,17.87,26.93,24.39,10.57,6.75,21.05,11.13,31.44,13.12,19.28,3.71,38.82,2.11,58.63-4.79,3.54-.99,7.04-2.2,10.51-3.65,23.55-9.83,44.95-23.23,64.2-40.2.09-.08.14-.19.14-.31,0-.23-.18-.42-.42-.42Z"/>
    <path class="st1" d="M227.01,391.88s0,0,0,0c-.08-.09-.21-.11-.3-.03-3.48,2.85-7.63,5.88-12.44,9.11-19,12.75-41.45,20.97-64.07,21.29-8.89.13-17.83-.93-26.8-3.19-1.93-.49-3.86-.97-5.77-1.44-30.38-9.76-58.64-32.14-74.68-59.55-13.27-22.68-19.92-47.14-19.95-73.38,0-2.49.11-5.33.36-8.54,2.98-38.56,19.23-73.84,49.12-98.01,13.63-10.77,28.83-17.92,45.6-21.44,2.63-.44,5.21-.85,7.75-1.22,6.65-.98,12.79-.67,19.23-.7,2.39-.01,4.28.08,5.67.28,3.1.45,4.96.68,5.57.69.25,0,.5.11.67.3l8.33,9.39c.54.61.83,1.41.79,2.22l-1.1,22.92c-.09,1.89.56,3.73,1.81,5.14l2.37,2.66c.33.38.81.59,1.32.6.98,0,1.79-.78,1.79-1.77,0-2.43.67-12.04,1.99-28.84.89-11.35,1.43-18.43,1.6-21.24.11-1.63.18-2.91.21-3.85.1-2.52.36-5.59.79-9.21.33-2.82-.13-5.72.47-7.91.35-1.25.52-3.22.51-5.9-.01-4.25,1-8.5.71-13.56-.02-.32-.28-.58-.6-.6-4.97-.25-8.05,2.12-9.25,7.12,0,.05-.01.09-.02.13l-1,22.73c-.02.34-.22.64-.52.79l-12.85,6.38c-.43.21-.92.3-1.4.27-12.48-.87-24.79.06-36.93,2.77-16.03,3.39-30.72,9.63-44.07,18.71-16.9,11.63-30.38,27.12-40.21,45.42-9.95,18.52-17.54,40.01-19.01,60.87-.79,11.11-.66,21.56.37,31.37,5.92,56.35,42.71,109.04,99.92,123.05,21.9,5.33,45.65,3.1,66.66-4.86,14.81-5.61,29.27-14.15,43.37-25.63,1.48-1.21,2.8-2.22,3.96-3.05,0,0,0,0,0,0,.08-.06.1-.18.04-.27h0Z"/>
  </g>
</svg>